<?xml version="1.0" encoding="UTF-8" standalone="no"?><!DOCTYPE svg PUBLIC "-//W3C//DTD SVG 1.1//EN" "http://www.w3.org/Graphics/SVG/1.1/DTD/svg11.dtd"><svg width="100%" height="100%" viewBox="0 0 32 32" version="1.1" xmlns="http://www.w3.org/2000/svg" xmlns:xlink="http://www.w3.org/1999/xlink" xml:space="preserve" style="fill-rule:evenodd;clip-rule:evenodd;stroke-linejoin:round;stroke-miterlimit:1.41421;"><path d="M29,0l-26,0c-1.65,0 -3,1.35 -3,3l0,26c0,1.65 1.35,3 3,3l26,0c1.65,0 3,-1.35 3,-3l0,-26c0,-1.65 -1.35,-3 -3,-3Zm-17,24c-4.425,0 -8,-3.575 -8,-8c0,-4.425 3.575,-8 8,-8c2.162,0 3.969,0.787 5.363,2.094l-2.175,2.088c-0.594,-0.569 -1.631,-1.231 -3.188,-1.231c-2.731,0 -4.963,2.263 -4.963,5.05c0,2.787 2.231,5.05 4.963,5.05c3.169,0 4.356,-2.275 4.538,-3.45l-4.537,0l0,-2.744l7.556,0c0.069,0.4 0.125,0.8 0.125,1.325c0,4.575 -3.063,7.819 -7.681,7.819l-0.001,-0.001Zm16,-8l-2,0l0,2l-2,0l0,-2l-2,0l0,-2l2,0l0,-2l2,0l0,2l2,0l0,2Z" style="fill:#fff;fill-rule:nonzero;"/></svg>