<?xml version="1.0" encoding="UTF-8" standalone="no"?><!DOCTYPE svg PUBLIC "-//W3C//DTD SVG 1.1//EN" "http://www.w3.org/Graphics/SVG/1.1/DTD/svg11.dtd"><svg width="100%" height="100%" viewBox="0 0 32 32" version="1.1" xmlns="http://www.w3.org/2000/svg" xmlns:xlink="http://www.w3.org/1999/xlink" xml:space="preserve" style="fill-rule:evenodd;clip-rule:evenodd;stroke-linejoin:round;stroke-miterlimit:1.41421;"><path d="M25.589,7.222c-2.376,-2.595 -5.793,-4.222 -9.59,-4.222c-7.18,0 -13,5.82 -13,13l2.438,0c0,-5.834 4.728,-10.563 10.562,-10.563c3.123,0 5.93,1.356 7.864,3.512l-3.801,3.801l8.937,0l0,-8.938l-3.411,3.41l0.001,0Z" style="fill:#238dff;fill-opacity:0.498039;fill-rule:nonzero;"/><path d="M26.562,16c0,5.834 -4.728,10.563 -10.562,10.563c-3.123,0 -5.93,-1.356 -7.864,-3.512l3.801,-3.801l-8.937,0l0,8.938l3.41,-3.41c2.376,2.595 5.793,4.222 9.59,4.222c7.18,0 13,-5.82 13,-13l-2.438,0l0,0Z" style="fill:#238dff;fill-opacity:0.498039;fill-rule:nonzero;"/></svg>