<?xml version="1.0" encoding="UTF-8" standalone="no"?><!DOCTYPE svg PUBLIC "-//W3C//DTD SVG 1.1//EN" "http://www.w3.org/Graphics/SVG/1.1/DTD/svg11.dtd"><svg width="100%" height="100%" viewBox="0 0 32 32" version="1.1" xmlns="http://www.w3.org/2000/svg" xmlns:xlink="http://www.w3.org/1999/xlink" xml:space="preserve" style="fill-rule:evenodd;clip-rule:evenodd;stroke-linejoin:round;stroke-miterlimit:1.41421;"><path d="M0,2l0,28l32,0l0,-28l-32,0Zm30,26l-28,0l0,-24l28,0l0,24Zm-2,-22l-24,0l0,20l24,0l0,-20Zm-14,10l-2,0l0,2l-2,0l0,2l-2,0l0,-2l2,0l0,-2l2,0l0,-2l-2,0l0,-2l-2,0l0,-2l2,0l0,2l2,0l0,2l2,0l0,2Zm8,4l-6,0l0,-2l6,0l0,2Z" style="fill:#238dff;fill-opacity:0.498039;fill-rule:nonzero;"/></svg>