<?xml version="1.0" encoding="UTF-8" standalone="no"?><!DOCTYPE svg PUBLIC "-//W3C//DTD SVG 1.1//EN" "http://www.w3.org/Graphics/SVG/1.1/DTD/svg11.dtd"><svg width="100%" height="100%" viewBox="0 0 64 64" version="1.1" xmlns="http://www.w3.org/2000/svg" xmlns:xlink="http://www.w3.org/1999/xlink" xml:space="preserve" style="fill-rule:evenodd;clip-rule:evenodd;stroke-linejoin:round;stroke-miterlimit:1.41421;"><g><g opacity="0.5"><path d="M45.842,41.208c2.756,0 4.988,2.234 4.988,4.99c0,2.756 -2.232,4.988 -4.988,4.988c-2.757,0 -4.989,-2.232 -4.989,-4.988c0,-2.756 2.232,-4.99 4.989,-4.99Zm0,6.648c0.914,0 1.657,-0.742 1.657,-1.657c0,-0.917 -0.743,-1.659 -1.657,-1.659c-0.917,0 -1.66,0.742 -1.66,1.659c0,0.915 0.743,1.657 1.66,1.657Z" style="fill:#238dff;fill-rule:nonzero;"/><path d="M17.821,41.208c2.755,0 4.988,2.234 4.988,4.99c0,2.756 -2.233,4.988 -4.988,4.988c-2.757,0 -4.989,-2.232 -4.989,-4.988c0,-2.756 2.232,-4.99 4.989,-4.99Zm0,6.648c0.915,0 1.658,-0.742 1.658,-1.657c0,-0.917 -0.743,-1.659 -1.658,-1.659c-0.916,0 -1.659,0.742 -1.659,1.659c0,0.915 0.743,1.657 1.659,1.657Z" style="fill:#238dff;fill-rule:nonzero;"/><path d="M7.651,40.598l0.342,0l0,-12.389c0,-0.565 0.277,-1.387 0.618,-1.836l5.667,-7.451c0.342,-0.448 1.077,-0.813 1.643,-0.813l9.211,0l0,-4.273c0,-0.566 0.457,-1.023 1.023,-1.023l25.564,0c2.261,0 4.092,1.831 4.092,4.091l0,23.694l0.534,0c0.552,0 1,0.447 1,1l0,3.577c0,0.564 -0.458,1.023 -1.022,1.023l-3.492,0c0,-3.854 -3.135,-6.989 -6.988,-6.989c-3.854,0 -6.989,3.135 -6.989,6.989l-14.044,0c0,-3.854 -3.135,-6.989 -6.988,-6.989c-3.854,0 -6.989,3.135 -6.989,6.989l-3.157,0c-0.566,0 -1.023,-0.459 -1.023,-1.023l0,-3.577c-0.002,-0.553 0.445,-1 0.998,-1l0,0Zm14.885,-12.643l0,-5.977l-4.258,0c-0.538,0 -1.236,0.35 -1.559,0.781l-3.807,5.195l9.624,0l0,0.001Z" style="fill:#238dff;fill-rule:nonzero;"/></g></g></svg>